<svg width="32" height="32" viewBox="0 0 32 32" fill="none" xmlns="http://www.w3.org/2000/svg">
<path d="M23.6671 22.0058C23.5237 23.0991 22.8074 24.0451 21.8044 24.4655C21.313 24.6755 20.7809 24.7388 20.2486 24.6755C19.737 24.6125 19.2251 24.4443 18.693 24.1293C17.956 23.7085 17.2191 23.0571 16.3594 22.09C17.7104 20.3874 18.529 18.8317 18.8362 17.4447C18.9795 16.7929 19 16.2042 18.9386 15.6576C18.8568 15.1322 18.6726 14.6486 18.3859 14.2281C17.7513 13.2823 16.687 12.7357 15.4997 12.7357C14.3124 12.7357 13.248 13.3033 12.6135 14.2281C12.3268 14.6486 12.1428 15.1322 12.0608 15.6576C11.979 16.2042 11.9994 16.8139 12.1632 17.4447C12.4702 18.8317 13.3094 20.4084 14.64 22.1108C13.8008 23.0781 13.0433 23.7297 12.3064 24.1501C11.7743 24.4655 11.2624 24.6338 10.7508 24.6965C10.1981 24.7598 9.66577 24.6755 9.19503 24.4865C8.192 24.0661 7.47567 23.1199 7.33232 22.0268C7.27097 21.5014 7.31187 20.976 7.51657 20.3874C7.57791 20.177 7.68036 19.9672 7.78261 19.7148C7.92596 19.3786 8.08975 19.0209 8.25335 18.6635L8.274 18.6217C9.68622 15.4894 11.2011 12.2943 12.7773 9.18337L12.8387 9.05695C13.0024 8.74195 13.166 8.40575 13.33 8.09033C13.4936 7.75391 13.6779 7.4385 13.903 7.16508C14.3329 6.66045 14.9061 6.38725 15.5406 6.38725C16.1751 6.38725 16.7483 6.66045 17.1782 7.16508C17.4033 7.4385 17.5875 7.75391 17.7513 8.09033C17.9151 8.40575 18.0787 8.74195 18.2425 9.05695L18.3041 9.18337C19.8597 12.3153 21.3745 15.5104 22.7869 18.6427V18.6635C22.9507 18.9999 23.0939 19.3786 23.2577 19.7148C23.3601 19.9672 23.4624 20.177 23.5237 20.3874C23.6875 20.9338 23.7489 21.4596 23.6671 22.0058ZM15.4997 21.0178C14.3944 19.5886 13.6779 18.2431 13.4323 17.1083C13.33 16.6246 13.3094 16.2042 13.3709 15.8258C13.4118 15.4894 13.5347 15.195 13.6983 14.9426C14.0873 14.3756 14.7423 14.0175 15.4997 14.0175C16.2571 14.0175 16.9326 14.3541 17.3011 14.9426C17.4647 15.195 17.5876 15.4894 17.6284 15.8258C17.6898 16.2042 17.6693 16.6456 17.5671 17.1083C17.3215 18.2223 16.605 19.5676 15.4997 21.0178ZM24.7314 19.9248C24.6292 19.6726 24.5268 19.3993 24.4245 19.1681C24.2607 18.7899 24.0969 18.4323 23.9536 18.0959L23.9331 18.0751C22.5209 14.9218 21.006 11.7267 19.4094 8.57395L19.348 8.44754C19.1842 8.13212 19.0204 7.7957 18.8568 7.4595C18.6519 7.08087 18.4472 6.68187 18.1198 6.30325C17.4647 5.46242 16.5232 5 15.5201 5C14.4967 5 13.5756 5.46242 12.9 6.26146C12.5931 6.63966 12.3679 7.03908 12.1632 7.41771C11.9994 7.75391 11.8356 8.09033 11.6718 8.40575L11.6105 8.53153C10.0345 11.6847 8.49915 14.88 7.08673 18.0331L7.06628 18.0751C6.92293 18.4113 6.75913 18.7685 6.59533 19.1471C6.49309 19.3786 6.39064 19.6308 6.28839 19.904C6.02214 20.6816 5.94035 21.4174 6.04259 22.174C6.26794 23.7507 7.29142 25.0752 8.70384 25.6636C9.23593 25.895 9.78867 26 10.3619 26C10.5257 26 10.7303 25.979 10.8941 25.9578C11.5696 25.8736 12.2655 25.6428 12.9409 25.2432C13.7803 24.7598 14.5787 24.0661 15.4792 23.0571C16.3798 24.0661 17.1986 24.7598 18.0174 25.2432C18.693 25.6428 19.3889 25.8736 20.0643 25.9578C20.2281 25.979 20.4328 26 20.5966 26C21.1698 26 21.7428 25.895 22.2547 25.6636C23.6875 25.0752 24.6905 23.7297 24.9157 22.174C25.0795 21.4382 24.9975 20.7028 24.7314 19.9248Z" fill="#717171"/>
</svg>
