<svg width="32" height="32" viewBox="0 0 32 32" fill="none" xmlns="http://www.w3.org/2000/svg">
<path d="M16.0002 9.66405L15.0143 8.68139C12.7001 6.37473 8.45671 7.17073 6.92491 10.0707C6.20577 11.4347 6.04351 13.404 7.35668 15.9174C8.62172 18.3374 11.2535 21.236 16.0002 24.3933C20.7468 21.236 23.3773 18.3374 24.6437 15.9174C25.9569 13.4027 25.796 11.4347 25.0755 10.0707C23.5437 7.17073 19.3003 6.3734 16.9861 8.68006L16.0002 9.66405ZM16.0002 26C-5.08333 12.4907 9.50862 1.94674 15.7582 7.52406C15.8407 7.59739 15.9218 7.67339 16.0002 7.75206C16.0778 7.67346 16.1585 7.59785 16.2422 7.52539C22.4904 1.94408 37.0837 12.4894 16.0002 26Z" fill="#717171"/>
</svg>
