<svg width="86" height="46" viewBox="0 0 86 46" fill="none" xmlns="http://www.w3.org/2000/svg">
<path fill-rule="evenodd" clip-rule="evenodd" d="M32.75 2C31.7835 2 31 2.7835 31 3.75V24.25C31 25.2165 31.7835 26 32.75 26H35.75C36.7165 26 37.5 25.2165 37.5 24.25V24H52.75H54.75V22.5H53.5V5H54.75V3.5H52.75H38.9823C38.861 2.65193 38.1316 2 37.25 2H32.75ZM52 19.9041V22.5H37.5V20.625L38.068 20.199C38.492 19.881 39.0704 19.865 39.5114 20.159L40.3055 20.6884C41.1722 21.2662 42.2909 21.3047 43.1953 20.7879L44.5489 20.0144C44.96 19.7795 45.4685 19.7971 45.8624 20.0597L46.9181 20.7635C47.7022 21.2862 48.6993 21.371 49.5604 20.9883L52 19.9041ZM52 16.4041V18.2626L48.9512 19.6176C48.5598 19.7916 48.1066 19.753 47.7502 19.5154L46.6945 18.8116C45.8278 18.2338 44.7091 18.1953 43.8047 18.7121L42.4511 19.4856C42.04 19.7205 41.5315 19.7029 41.1376 19.4403L40.3434 18.9109C39.4821 18.3367 38.3824 18.3001 37.4938 18.7887C37.47 18.3239 37.3781 17.8671 37.2226 17.4324L38.0766 16.7492C38.5016 16.4092 39.0979 16.3833 39.5508 16.6853L40.3055 17.1884C41.1722 17.7662 42.2909 17.8047 43.1953 17.2879L44.5489 16.5144C44.96 16.2795 45.4685 16.2971 45.8624 16.5597L46.9181 17.2635C47.7022 17.7862 48.6993 17.871 49.5604 17.4883L52 16.4041ZM52 5V14.7626L48.9512 16.1176C48.5598 16.2916 48.1066 16.253 47.7502 16.0154L46.6945 15.3116C45.8278 14.7338 44.7091 14.6953 43.8047 15.2121L42.4511 15.9856C42.04 16.2205 41.5315 16.2029 41.1376 15.9403L40.3828 15.4372C39.3864 14.7729 38.0746 14.8298 37.1395 15.5779L36.4909 16.0968L35.2081 14.301L37.8002 11.3849C38.5731 10.5154 39 9.39254 39 8.2292V5H52ZM36.6791 10.3884L33.9132 13.5H32.5V3.75C32.5 3.61193 32.6119 3.5 32.75 3.5H37.25C37.3881 3.5 37.5 3.61193 37.5 3.75V8.2292C37.5 9.02517 37.2079 9.79347 36.6791 10.3884ZM32.5 24.25V15H33.864L35.3946 17.1428C35.7883 17.694 36 18.3545 36 19.0319V24.25C36 24.3881 35.8881 24.5 35.75 24.5H32.75C32.6119 24.5 32.5 24.3881 32.5 24.25ZM47.25 12.25C48.6307 12.25 49.75 11.1307 49.75 9.75C49.75 8.36929 48.6307 7.25 47.25 7.25C45.8693 7.25 44.75 8.36929 44.75 9.75C44.75 11.1307 45.8693 12.25 47.25 12.25ZM48.25 9.75C48.25 10.3023 47.8023 10.75 47.25 10.75C46.6977 10.75 46.25 10.3023 46.25 9.75C46.25 9.19772 46.6977 8.75 47.25 8.75C47.8023 8.75 48.25 9.19772 48.25 9.75Z" fill="#717171"/>
<path d="M0.24 42H1.728L2.316 40.128H5.724L6.318 42H7.806L5.082 33.36H2.964L0.24 42ZM2.742 38.778L4.008 34.758L5.292 38.778H2.742ZM8.87878 42H10.3368V38.01C10.3368 37.606 10.4468 37.278 10.6668 37.026C10.8908 36.774 11.1868 36.648 11.5548 36.648C11.9348 36.648 12.2348 36.774 12.4548 37.026C12.6748 37.278 12.7848 37.63 12.7848 38.082V42H14.2248V38.01C14.2248 37.582 14.3408 37.248 14.5728 37.008C14.8088 36.768 15.1008 36.648 15.4488 36.648C15.8208 36.648 16.1168 36.774 16.3368 37.026C16.5608 37.274 16.6728 37.62 16.6728 38.064V42H18.1188V37.698C18.1188 36.994 17.9268 36.428 17.5428 36C17.1628 35.572 16.6148 35.358 15.8988 35.358C15.4788 35.358 15.0948 35.45 14.7468 35.634C14.3988 35.818 14.1248 36.07 13.9248 36.39C13.7528 36.074 13.5088 35.824 13.1928 35.64C12.8768 35.452 12.4908 35.358 12.0348 35.358C11.6468 35.358 11.2888 35.436 10.9608 35.592C10.6368 35.744 10.3688 35.954 10.1568 36.222V35.52H8.87878V42ZM21.4958 42.18C22.0118 42.18 22.4498 42.096 22.8098 41.928C23.1738 41.756 23.4938 41.49 23.7698 41.13V42H25.0358V38.022C25.0358 37.742 25.0238 37.484 24.9998 37.248C24.9758 37.008 24.9058 36.774 24.7898 36.546C24.5778 36.118 24.2518 35.81 23.8118 35.622C23.3758 35.434 22.8698 35.34 22.2938 35.34C21.5338 35.34 20.9278 35.506 20.4758 35.838C20.0238 36.17 19.7178 36.61 19.5578 37.158L20.8778 37.572C20.9858 37.24 21.1758 37.006 21.4478 36.87C21.7198 36.734 22.0018 36.666 22.2938 36.666C22.7338 36.666 23.0578 36.756 23.2658 36.936C23.4738 37.112 23.5918 37.386 23.6198 37.758C23.0518 37.842 22.5238 37.924 22.0358 38.004C21.5518 38.08 21.1398 38.174 20.7998 38.286C20.2878 38.462 19.9138 38.712 19.6778 39.036C19.4418 39.356 19.3238 39.752 19.3238 40.224C19.3238 40.58 19.4058 40.906 19.5698 41.202C19.7378 41.498 19.9838 41.736 20.3078 41.916C20.6318 42.092 21.0278 42.18 21.4958 42.18ZM21.7838 41.028C21.4438 41.028 21.1838 40.95 21.0038 40.794C20.8278 40.638 20.7398 40.442 20.7398 40.206C20.7398 39.994 20.8078 39.822 20.9438 39.69C21.0838 39.558 21.2778 39.446 21.5258 39.354C21.7538 39.278 22.0278 39.212 22.3478 39.156C22.6678 39.096 23.0858 39.026 23.6018 38.946C23.5978 39.098 23.5878 39.268 23.5718 39.456C23.5558 39.64 23.5178 39.806 23.4578 39.954C23.4098 40.102 23.3158 40.26 23.1758 40.428C23.0398 40.596 22.8558 40.738 22.6238 40.854C22.3918 40.97 22.1118 41.028 21.7838 41.028ZM25.9978 42H31.5358V40.734H28.2598L31.6798 35.724V35.52H26.3458V36.786H29.4298L25.9978 41.802V42ZM33.1163 34.536H34.5623V33.21H33.1163V34.536ZM33.1163 42H34.5623V35.52H33.1163V42ZM36.3475 42H37.8115V38.67C37.8115 38.146 37.8855 37.742 38.0335 37.458C38.1855 37.17 38.3775 36.972 38.6095 36.864C38.8455 36.752 39.0855 36.696 39.3295 36.696C39.6735 36.696 39.9475 36.772 40.1515 36.924C40.3555 37.072 40.5055 37.262 40.6015 37.494C40.7015 37.722 40.7655 37.96 40.7935 38.208C40.8255 38.456 40.8415 38.68 40.8415 38.88V42H42.3055V38.382C42.3055 38.23 42.2915 38.028 42.2635 37.776C42.2395 37.524 42.1835 37.258 42.0955 36.978C42.0075 36.698 41.8715 36.434 41.6875 36.186C41.5035 35.934 41.2535 35.73 40.9375 35.574C40.6255 35.414 40.2315 35.334 39.7555 35.334C39.2875 35.334 38.8755 35.416 38.5195 35.58C38.1675 35.74 37.8735 35.96 37.6375 36.24V35.52H36.3475V42ZM46.4693 42.18C46.8053 42.18 47.1113 42.134 47.3873 42.042C47.6673 41.954 47.9173 41.83 48.1373 41.67V42.288C48.1453 42.748 48.0033 43.096 47.7113 43.332C47.4233 43.568 47.0533 43.686 46.6013 43.686C46.3453 43.686 46.1033 43.628 45.8753 43.512C45.6473 43.396 45.4733 43.222 45.3533 42.99L44.0213 43.65C44.2733 44.09 44.6293 44.434 45.0893 44.682C45.5533 44.934 46.0553 45.06 46.5953 45.06C47.3273 45.06 47.9553 44.91 48.4793 44.61C49.0073 44.314 49.3453 43.852 49.4933 43.224C49.5253 43.08 49.5473 42.934 49.5593 42.786C49.5753 42.638 49.5833 42.48 49.5833 42.312V35.52H48.3173V35.988C48.0893 35.78 47.8253 35.62 47.5253 35.508C47.2253 35.396 46.8913 35.34 46.5233 35.34C45.9113 35.34 45.3793 35.488 44.9273 35.784C44.4793 36.08 44.1313 36.486 43.8833 37.002C43.6353 37.518 43.5113 38.104 43.5113 38.76C43.5113 39.408 43.6333 39.99 43.8773 40.506C44.1213 41.022 44.4653 41.43 44.9093 41.73C45.3533 42.03 45.8733 42.18 46.4693 42.18ZM46.6913 40.884C46.3153 40.884 46.0053 40.79 45.7613 40.602C45.5173 40.41 45.3353 40.154 45.2153 39.834C45.0993 39.514 45.0413 39.156 45.0413 38.76C45.0413 38.368 45.1013 38.012 45.2213 37.692C45.3453 37.368 45.5313 37.112 45.7793 36.924C46.0313 36.732 46.3513 36.636 46.7393 36.636C47.2913 36.636 47.6913 36.832 47.9393 37.224C48.1913 37.616 48.3173 38.128 48.3173 38.76C48.3173 39.388 48.1913 39.9 47.9393 40.296C47.6913 40.688 47.2753 40.884 46.6913 40.884ZM55.4201 42H56.8721L59.2241 35.52H57.7721L56.1461 40.218L54.5141 35.52H53.0681L55.4201 42ZM60.4209 34.536H61.8669V33.21H60.4209V34.536ZM60.4209 42H61.8669V35.52H60.4209V42ZM66.6102 42.18C67.2342 42.18 67.8042 42.02 68.3202 41.7C68.8402 41.376 69.2242 40.92 69.4722 40.332L68.0442 39.9C67.7562 40.516 67.2502 40.824 66.5262 40.824C66.0342 40.824 65.6462 40.682 65.3622 40.398C65.0782 40.11 64.9082 39.698 64.8522 39.162H69.5442C69.6002 38.382 69.5142 37.706 69.2862 37.134C69.0582 36.562 68.7082 36.12 68.2362 35.808C67.7682 35.496 67.1982 35.34 66.5262 35.34C65.8902 35.34 65.3302 35.484 64.8462 35.772C64.3622 36.056 63.9842 36.46 63.7122 36.984C63.4402 37.508 63.3042 38.124 63.3042 38.832C63.3042 39.488 63.4422 40.068 63.7182 40.572C63.9982 41.076 64.3862 41.47 64.8822 41.754C65.3782 42.038 65.9542 42.18 66.6102 42.18ZM66.5862 36.606C67.0342 36.606 67.3782 36.724 67.6182 36.96C67.8622 37.192 68.0162 37.562 68.0802 38.07H64.8882C65.0602 37.094 65.6262 36.606 66.5862 36.606ZM72.0286 42H73.1566L74.6206 37.542L76.0906 42H77.2186L79.1986 35.52H77.7826L76.5106 39.678L75.2326 35.52H74.0146L72.7306 39.678L71.4646 35.52L70.0486 35.508L72.0286 42ZM82.549 42.18C83.385 42.18 84.039 41.994 84.511 41.622C84.987 41.25 85.225 40.738 85.225 40.086C85.225 39.582 85.065 39.186 84.745 38.898C84.429 38.61 83.883 38.366 83.107 38.166C82.603 38.038 82.223 37.93 81.967 37.842C81.715 37.754 81.547 37.666 81.463 37.578C81.379 37.49 81.337 37.384 81.337 37.26C81.337 37.044 81.441 36.876 81.649 36.756C81.857 36.632 82.131 36.578 82.471 36.594C82.823 36.614 83.105 36.704 83.317 36.864C83.533 37.024 83.661 37.242 83.701 37.518L85.177 37.254C85.097 36.67 84.811 36.206 84.319 35.862C83.827 35.514 83.203 35.34 82.447 35.34C81.675 35.34 81.057 35.52 80.593 35.88C80.129 36.24 79.897 36.724 79.897 37.332C79.897 37.816 80.059 38.198 80.383 38.478C80.711 38.758 81.281 39.004 82.093 39.216C82.581 39.344 82.941 39.452 83.173 39.54C83.409 39.624 83.563 39.71 83.635 39.798C83.707 39.886 83.743 40.004 83.743 40.152C83.743 40.392 83.647 40.582 83.455 40.722C83.263 40.858 82.995 40.926 82.651 40.926C82.255 40.926 81.925 40.834 81.661 40.65C81.401 40.466 81.235 40.214 81.163 39.894L79.687 40.122C79.795 40.774 80.099 41.28 80.599 41.64C81.099 42 81.749 42.18 82.549 42.18Z" fill="#717171"/>
</svg>
