<svg width="34" height="44" viewBox="0 0 34 44" fill="none" xmlns="http://www.w3.org/2000/svg">
<path fill-rule="evenodd" clip-rule="evenodd" d="M11.838 10.5C12.005 9.47153 12.4992 8.35214 13.2646 7.42648C14.2141 6.2783 15.5176 5.5 17.0249 5.5C18.5321 5.5 19.8356 6.2783 20.7851 7.42648C21.5505 8.35214 22.0447 9.47153 22.2118 10.5H11.838ZM10.3227 10.5C10.4964 9.1104 11.135 7.64801 12.1086 6.47059C13.267 5.06974 14.9635 4 17.0249 4C19.0862 4 20.7827 5.06974 21.9411 6.47059C22.9147 7.64801 23.5533 9.1104 23.727 10.5H23.9366L24.1591 10.7389L27.0859 13.8817L27.5619 14.3929L27.0859 14.904L24.3227 17.8712C24.5076 18.2965 24.6891 18.6793 24.8752 19.0713L24.8778 19.0769L24.8779 19.077C25.0876 19.519 25.3031 19.973 25.527 20.5H27.0249V22H25.0249H24.5167L24.3283 21.528C24.0523 20.8365 23.7909 20.2853 23.52 19.7144L23.5174 19.7088L23.5173 19.7087C23.3076 19.2667 23.0921 18.8127 22.8682 18.2857H17.531V22.25H16.031V18.2857H10.9496L11.1251 18.3635L9.71048 21.554L9.51273 22H9.02486H7.02486V20.5H8.53698L9.55313 18.2082L9.40283 18.0468L6.476 14.904L6 14.3929L6.476 13.8817L9.40283 10.7389L9.62528 10.5H9.95169H10.3227ZM25.5122 14.3929L23.2838 16.7857H16.781H10.2781L8.04971 14.3929L10.2781 12H23.2838L25.5122 14.3929Z" fill="#252525"/>
<circle cx="17.0249" cy="14.25" r="1" fill="#252525"/>
<circle cx="12.0249" cy="14.25" r="1" fill="#252525"/>
<circle cx="22.0249" cy="14.25" r="1" fill="#252525"/>
<path d="M4.994 42.18C5.858 42.18 6.598 41.992 7.214 41.616C7.834 41.236 8.308 40.708 8.636 40.032C8.968 39.356 9.134 38.572 9.134 37.68C9.134 36.784 8.968 36 8.636 35.328C8.308 34.652 7.834 34.126 7.214 33.75C6.598 33.37 5.858 33.18 4.994 33.18C4.134 33.18 3.394 33.37 2.774 33.75C2.158 34.126 1.684 34.652 1.352 35.328C1.024 36 0.86 36.784 0.86 37.68C0.86 38.572 1.024 39.356 1.352 40.032C1.684 40.708 2.158 41.236 2.774 41.616C3.394 41.992 4.134 42.18 4.994 42.18ZM4.994 40.818C4.126 40.806 3.474 40.516 3.038 39.948C2.602 39.38 2.386 38.624 2.39 37.68C2.394 37.048 2.492 36.496 2.684 36.024C2.876 35.552 3.164 35.186 3.548 34.926C3.932 34.662 4.414 34.534 4.994 34.542C5.866 34.554 6.518 34.844 6.95 35.412C7.386 35.98 7.604 36.736 7.604 37.68C7.604 38.308 7.506 38.86 7.31 39.336C7.118 39.808 6.828 40.174 6.44 40.434C6.056 40.694 5.574 40.822 4.994 40.818ZM10.3283 42H11.6843V36.462L14.3303 42H14.9063L17.5583 36.462V42H18.9083V33.36H17.6063L14.6183 39.48L11.6303 33.36H10.3283V42ZM24.1579 42.18C24.9939 42.18 25.7119 42 26.3119 41.64C26.9119 41.276 27.3719 40.778 27.6919 40.146C28.0159 39.514 28.1779 38.79 28.1779 37.974C28.1779 37.95 28.1759 37.876 28.1719 37.752C28.1679 37.628 28.1619 37.534 28.1539 37.47H25.0939V38.604H26.6179C26.5059 39.348 26.2459 39.906 25.8379 40.278C25.4299 40.646 24.8999 40.826 24.2479 40.818C23.3799 40.806 22.7279 40.516 22.2919 39.948C21.8559 39.38 21.6399 38.624 21.6439 37.68C21.6479 37.048 21.7459 36.496 21.9379 36.024C22.1299 35.552 22.4179 35.186 22.8019 34.926C23.1859 34.666 23.6679 34.54 24.2479 34.548C24.8199 34.552 25.2919 34.706 25.6639 35.01C26.0399 35.314 26.3099 35.722 26.4739 36.234L27.9499 36C27.7299 35.112 27.3079 34.42 26.6839 33.924C26.0639 33.428 25.2219 33.18 24.1579 33.18C23.3899 33.18 22.6999 33.358 22.0879 33.714C21.4799 34.07 20.9979 34.584 20.6419 35.256C20.2899 35.928 20.1139 36.736 20.1139 37.68C20.1139 38.64 20.2939 39.456 20.6539 40.128C21.0179 40.796 21.5059 41.306 22.1179 41.658C22.7299 42.006 23.4099 42.18 24.1579 42.18ZM29.983 39.84H31.429V33.36H29.983V39.84ZM29.983 42H31.429V40.674H29.983V42Z" fill="#252525"/>
</svg>
