<svg width="50" height="44" viewBox="0 0 50 44" fill="none" xmlns="http://www.w3.org/2000/svg">
<path fill-rule="evenodd" clip-rule="evenodd" d="M18.9588 5.38626C21.1143 3.05767 24.5083 1.03502 29.2212 2.49172C33.9075 3.94017 35.7931 7.46911 36.4937 10.5511C36.8425 12.0852 36.9038 13.5232 36.8794 14.5737C36.8671 15.1004 36.8333 15.5337 36.802 15.8378C36.7864 15.99 36.7714 16.1101 36.7601 16.1938C36.7544 16.2357 36.7496 16.2685 36.7461 16.2916L36.7419 16.319L36.7406 16.3272L36.7402 16.3298L36.74 16.3308C36.74 16.3312 36.7399 16.3316 35.9999 16.2096C35.8019 16.933 35.8018 16.9329 35.8016 16.9329L35.801 16.9327L35.7983 16.932L35.7877 16.9291L35.7457 16.9176L35.582 16.8727L34.9612 16.7025C34.4263 16.5558 33.6624 16.346 32.7458 16.0939C31.0693 15.6326 28.8819 15.0294 26.6522 14.4106L23.7222 24.9099L23.5206 25.6323L22.0758 25.2291L22.2774 24.5067L25.207 14.0089C23.0459 13.4073 20.939 12.8163 19.3156 12.3516C18.4021 12.0901 17.6384 11.8677 17.1034 11.7056C16.8372 11.6249 16.621 11.5572 16.4695 11.5061C16.3962 11.4813 16.3248 11.4561 16.2671 11.4325C16.2428 11.4226 16.1944 11.4024 16.1439 11.374C16.125 11.3634 16.0606 11.3271 15.9932 11.2648C15.9613 11.2354 15.8881 11.1637 15.8303 11.049C15.7671 10.9235 15.699 10.6915 15.8038 10.4302C15.7886 10.4681 15.8373 10.3443 15.8591 10.2904C15.8944 10.2031 15.9448 10.0819 16.0107 9.93252C16.1423 9.63401 16.3357 9.22227 16.5937 8.74245C17.1082 7.78593 17.8879 6.54326 18.9588 5.38626ZM35.9999 16.2096L36.7399 16.3316L36.6045 17.1527L35.8019 16.933L35.9999 16.2096ZM27.0554 12.9658C28.1687 13.2748 29.2715 13.5799 30.3054 13.8653C30.7752 11.5982 30.9823 10.0068 30.8164 8.64661C30.6671 7.42313 30.2085 6.33914 29.2515 5.09656L27.0554 12.9658ZM33.1437 14.6476C32.7118 14.5288 32.246 14.4005 31.7543 14.265C32.2397 11.9399 32.506 10.1097 32.3054 8.46498C32.1483 7.1773 31.7108 6.03918 30.9413 4.88006C33.4079 6.36483 34.5337 8.69569 35.031 10.8836C35.3448 12.2636 35.4023 13.5718 35.3798 14.5388C35.3736 14.8061 35.3613 15.046 35.3469 15.2529C34.8129 15.1064 34.0535 14.8979 33.1437 14.6476ZM29.5075 4.17897L29.5262 4.18627L29.4992 4.20873L29.5075 4.17897ZM22.8522 6.70518C23.6441 5.34759 24.7942 4.29394 26.6917 3.52219C23.7811 3.31575 21.6136 4.72642 20.0596 6.40521C18.7607 7.80853 17.9246 9.37036 17.5089 10.2611L17.5385 10.2701C18.0619 10.4287 18.8165 10.6485 19.7284 10.9095C20.1707 11.0361 20.6491 11.1722 21.155 11.3153C21.2299 11.069 21.3016 10.8284 21.3723 10.5908L21.3724 10.5906L21.3724 10.5904L21.3725 10.5904L21.3725 10.5903L21.3725 10.5903C21.493 10.1857 21.611 9.78949 21.7381 9.38791C22.0396 8.43579 22.372 7.52835 22.8522 6.70518ZM24.1478 7.46099C24.8107 6.32462 25.8086 5.39659 27.803 4.70644L25.6102 12.5641C24.5778 12.2767 23.5585 11.9919 22.5988 11.7223C22.6772 11.4645 22.7526 11.2118 22.8256 10.9671L22.8257 10.9668C22.9453 10.5661 23.0586 10.1865 23.1681 9.84075C23.4604 8.91788 23.753 8.13782 24.1478 7.46099ZM16.5 25.2081C18.433 25.2081 20 23.6411 20 21.7081C20 19.7751 18.433 18.2081 16.5 18.2081C14.567 18.2081 13 19.7751 13 21.7081C13 23.6411 14.567 25.2081 16.5 25.2081ZM18.5 21.7081C18.5 22.8127 17.6046 23.7081 16.5 23.7081C15.3954 23.7081 14.5 22.8127 14.5 21.7081C14.5 20.6035 15.3954 19.7081 16.5 19.7081C17.6046 19.7081 18.5 20.6035 18.5 21.7081Z" fill="#717171"/>
<path d="M0.84 42H4.614C5.466 42 6.112 41.764 6.552 41.292C6.992 40.82 7.212 40.2 7.212 39.432C7.212 38.996 7.104 38.6 6.888 38.244C6.676 37.888 6.362 37.622 5.946 37.446C6.214 37.286 6.424 37.06 6.576 36.768C6.732 36.472 6.81 36.128 6.81 35.736C6.81 35.348 6.718 34.972 6.534 34.608C6.354 34.244 6.076 33.946 5.7 33.714C5.328 33.478 4.85 33.36 4.266 33.36H0.84V42ZM2.304 36.81V34.71H4.248C4.592 34.71 4.86 34.81 5.052 35.01C5.244 35.21 5.34 35.46 5.34 35.76C5.34 36.104 5.234 36.366 5.022 36.546C4.814 36.722 4.556 36.81 4.248 36.81H2.304ZM2.304 40.638V38.16H4.476C4.88 38.16 5.194 38.278 5.418 38.514C5.642 38.75 5.754 39.042 5.754 39.39C5.754 39.774 5.628 40.078 5.376 40.302C5.128 40.526 4.814 40.638 4.434 40.638H2.304ZM11.3563 42.18C11.9803 42.18 12.5503 42.02 13.0663 41.7C13.5863 41.376 13.9703 40.92 14.2183 40.332L12.7903 39.9C12.5023 40.516 11.9963 40.824 11.2723 40.824C10.7803 40.824 10.3923 40.682 10.1083 40.398C9.82431 40.11 9.65431 39.698 9.59831 39.162H14.2903C14.3463 38.382 14.2603 37.706 14.0323 37.134C13.8043 36.562 13.4543 36.12 12.9823 35.808C12.5143 35.496 11.9443 35.34 11.2723 35.34C10.6363 35.34 10.0763 35.484 9.59231 35.772C9.10831 36.056 8.73031 36.46 8.45831 36.984C8.18631 37.508 8.05031 38.124 8.05031 38.832C8.05031 39.488 8.18831 40.068 8.46431 40.572C8.74431 41.076 9.13231 41.47 9.62831 41.754C10.1243 42.038 10.7003 42.18 11.3563 42.18ZM11.3323 36.606C11.7803 36.606 12.1243 36.724 12.3643 36.96C12.6083 37.192 12.7623 37.562 12.8263 38.07H9.63431C9.80631 37.094 10.3723 36.606 11.3323 36.606ZM17.3239 42.18C17.8399 42.18 18.2779 42.096 18.6379 41.928C19.0019 41.756 19.3219 41.49 19.5979 41.13V42H20.8639V38.022C20.8639 37.742 20.8519 37.484 20.8279 37.248C20.8039 37.008 20.7339 36.774 20.6179 36.546C20.4059 36.118 20.0799 35.81 19.6399 35.622C19.2039 35.434 18.6979 35.34 18.1219 35.34C17.3619 35.34 16.7559 35.506 16.3039 35.838C15.8519 36.17 15.5459 36.61 15.3859 37.158L16.7059 37.572C16.8139 37.24 17.0039 37.006 17.2759 36.87C17.5479 36.734 17.8299 36.666 18.1219 36.666C18.5619 36.666 18.8859 36.756 19.0939 36.936C19.3019 37.112 19.4199 37.386 19.4479 37.758C18.8799 37.842 18.3519 37.924 17.8639 38.004C17.3799 38.08 16.9679 38.174 16.6279 38.286C16.1159 38.462 15.7419 38.712 15.5059 39.036C15.2699 39.356 15.1519 39.752 15.1519 40.224C15.1519 40.58 15.2339 40.906 15.3979 41.202C15.5659 41.498 15.8119 41.736 16.1359 41.916C16.4599 42.092 16.8559 42.18 17.3239 42.18ZM17.6119 41.028C17.2719 41.028 17.0119 40.95 16.8319 40.794C16.6559 40.638 16.5679 40.442 16.5679 40.206C16.5679 39.994 16.6359 39.822 16.7719 39.69C16.9119 39.558 17.1059 39.446 17.3539 39.354C17.5819 39.278 17.8559 39.212 18.1759 39.156C18.4959 39.096 18.9139 39.026 19.4299 38.946C19.4259 39.098 19.4159 39.268 19.3999 39.456C19.3839 39.64 19.3459 39.806 19.2859 39.954C19.2379 40.102 19.1439 40.26 19.0039 40.428C18.8679 40.596 18.6839 40.738 18.4519 40.854C18.2199 40.97 17.9399 41.028 17.6119 41.028ZM25.2399 42.18C25.9639 42.18 26.5759 42.004 27.0759 41.652C27.5759 41.296 27.9259 40.788 28.1259 40.128L26.6499 39.798C26.5379 40.13 26.3699 40.384 26.1459 40.56C25.9259 40.736 25.6239 40.824 25.2399 40.824C24.6959 40.824 24.2859 40.634 24.0099 40.254C23.7379 39.874 23.5999 39.376 23.5959 38.76C23.5999 38.164 23.7319 37.672 23.9919 37.284C24.2559 36.892 24.6719 36.696 25.2399 36.696C25.5719 36.696 25.8679 36.794 26.1279 36.99C26.3879 37.182 26.5739 37.452 26.6859 37.8L28.1259 37.41C27.9739 36.77 27.6419 36.266 27.1299 35.898C26.6179 35.526 25.9939 35.34 25.2579 35.34C24.6019 35.34 24.0359 35.488 23.5599 35.784C23.0839 36.076 22.7159 36.48 22.4559 36.996C22.1999 37.508 22.0699 38.096 22.0659 38.76C22.0699 39.412 22.1959 39.996 22.4439 40.512C22.6959 41.028 23.0579 41.436 23.5299 41.736C24.0019 42.032 24.5719 42.18 25.2399 42.18ZM29.3163 42H30.7803V38.67C30.7803 38.146 30.8543 37.742 31.0023 37.458C31.1543 37.17 31.3463 36.972 31.5783 36.864C31.8143 36.752 32.0543 36.696 32.2983 36.696C32.6423 36.696 32.9163 36.772 33.1203 36.924C33.3243 37.072 33.4743 37.262 33.5703 37.494C33.6703 37.722 33.7343 37.96 33.7623 38.208C33.7943 38.456 33.8103 38.68 33.8103 38.88V42H35.2743V38.382C35.2743 38.23 35.2603 38.028 35.2323 37.776C35.2083 37.524 35.1523 37.258 35.0643 36.978C34.9763 36.698 34.8403 36.434 34.6563 36.186C34.4723 35.934 34.2223 35.73 33.9063 35.574C33.5943 35.414 33.2003 35.334 32.7243 35.334C32.2563 35.334 31.8443 35.416 31.4883 35.58C31.1363 35.74 30.8423 35.96 30.6063 36.24V33.36H29.3163V42ZM39.786 42.18C40.41 42.18 40.98 42.02 41.496 41.7C42.016 41.376 42.4 40.92 42.648 40.332L41.22 39.9C40.932 40.516 40.426 40.824 39.702 40.824C39.21 40.824 38.822 40.682 38.538 40.398C38.254 40.11 38.084 39.698 38.028 39.162H42.72C42.776 38.382 42.69 37.706 42.462 37.134C42.234 36.562 41.884 36.12 41.412 35.808C40.944 35.496 40.374 35.34 39.702 35.34C39.066 35.34 38.506 35.484 38.022 35.772C37.538 36.056 37.16 36.46 36.888 36.984C36.616 37.508 36.48 38.124 36.48 38.832C36.48 39.488 36.618 40.068 36.894 40.572C37.174 41.076 37.562 41.47 38.058 41.754C38.554 42.038 39.13 42.18 39.786 42.18ZM39.762 36.606C40.21 36.606 40.554 36.724 40.794 36.96C41.038 37.192 41.192 37.562 41.256 38.07H38.064C38.236 37.094 38.802 36.606 39.762 36.606ZM46.5608 42.18C47.3968 42.18 48.0508 41.994 48.5228 41.622C48.9988 41.25 49.2368 40.738 49.2368 40.086C49.2368 39.582 49.0768 39.186 48.7568 38.898C48.4408 38.61 47.8948 38.366 47.1188 38.166C46.6148 38.038 46.2348 37.93 45.9788 37.842C45.7268 37.754 45.5588 37.666 45.4748 37.578C45.3908 37.49 45.3488 37.384 45.3488 37.26C45.3488 37.044 45.4528 36.876 45.6608 36.756C45.8688 36.632 46.1428 36.578 46.4828 36.594C46.8348 36.614 47.1168 36.704 47.3288 36.864C47.5448 37.024 47.6728 37.242 47.7128 37.518L49.1888 37.254C49.1088 36.67 48.8228 36.206 48.3308 35.862C47.8388 35.514 47.2148 35.34 46.4588 35.34C45.6868 35.34 45.0688 35.52 44.6048 35.88C44.1408 36.24 43.9088 36.724 43.9088 37.332C43.9088 37.816 44.0708 38.198 44.3948 38.478C44.7228 38.758 45.2928 39.004 46.1048 39.216C46.5928 39.344 46.9528 39.452 47.1848 39.54C47.4208 39.624 47.5748 39.71 47.6468 39.798C47.7188 39.886 47.7548 40.004 47.7548 40.152C47.7548 40.392 47.6588 40.582 47.4668 40.722C47.2748 40.858 47.0068 40.926 46.6628 40.926C46.2668 40.926 45.9368 40.834 45.6728 40.65C45.4128 40.466 45.2468 40.214 45.1748 39.894L43.6988 40.122C43.8068 40.774 44.1108 41.28 44.6108 41.64C45.1108 42 45.7608 42.18 46.5608 42.18Z" fill="#717171"/>
</svg>
