<svg width="43" height="46" viewBox="0 0 43 46" fill="none" xmlns="http://www.w3.org/2000/svg">
<path fill-rule="evenodd" clip-rule="evenodd" d="M21 17C25.1421 17 28.5 13.6421 28.5 9.5C28.5 5.35786 25.1421 2 21 2C16.8579 2 13.5 5.35786 13.5 9.5C13.5 13.6421 16.8579 17 21 17ZM27 9.5C27 12.8137 24.3137 15.5 21 15.5C17.6863 15.5 15 12.8137 15 9.5C15 6.18629 17.6863 3.5 21 3.5C24.3137 3.5 27 6.18629 27 9.5ZM20 25.5V22L18.5 20.5H17V19H25.5V20.5H24L22.5 22V25.5H20ZM22 10.5C22 11.0523 21.5523 11.5 21 11.5C20.4477 11.5 20 11.0523 20 10.5C20 9.94772 20.4477 9.5 21 9.5C21.5523 9.5 22 9.94772 22 10.5ZM18 12.5C18.5523 12.5 19 12.0523 19 11.5C19 10.9477 18.5523 10.5 18 10.5C17.4477 10.5 17 10.9477 17 11.5C17 12.0523 17.4477 12.5 18 12.5ZM22 13.5C22 14.0523 21.5523 14.5 21 14.5C20.4477 14.5 20 14.0523 20 13.5C20 12.9477 20.4477 12.5 21 12.5C21.5523 12.5 22 12.9477 22 13.5ZM24 12.5C24.5523 12.5 25 12.0523 25 11.5C25 10.9477 24.5523 10.5 24 10.5C23.4477 10.5 23 10.9477 23 11.5C23 12.0523 23.4477 12.5 24 12.5Z" fill="#717171"/>
<path d="M4.404 42.18C5.24 42.18 5.958 42 6.558 41.64C7.158 41.276 7.618 40.778 7.938 40.146C8.262 39.514 8.424 38.79 8.424 37.974C8.424 37.95 8.422 37.876 8.418 37.752C8.414 37.628 8.408 37.534 8.4 37.47H5.34V38.604H6.864C6.752 39.348 6.492 39.906 6.084 40.278C5.676 40.646 5.146 40.826 4.494 40.818C3.626 40.806 2.974 40.516 2.538 39.948C2.102 39.38 1.886 38.624 1.89 37.68C1.894 37.048 1.992 36.496 2.184 36.024C2.376 35.552 2.664 35.186 3.048 34.926C3.432 34.666 3.914 34.54 4.494 34.548C5.066 34.552 5.538 34.706 5.91 35.01C6.286 35.314 6.556 35.722 6.72 36.234L8.196 36C7.976 35.112 7.554 34.42 6.93 33.924C6.31 33.428 5.468 33.18 4.404 33.18C3.636 33.18 2.946 33.358 2.334 33.714C1.726 34.07 1.244 34.584 0.888 35.256C0.536 35.928 0.36 36.736 0.36 37.68C0.36 38.64 0.54 39.456 0.9 40.128C1.264 40.796 1.752 41.306 2.364 41.658C2.976 42.006 3.656 42.18 4.404 42.18ZM12.4911 42.18C13.1391 42.18 13.7051 42.036 14.1891 41.748C14.6731 41.456 15.0491 41.054 15.3171 40.542C15.5891 40.026 15.7251 39.432 15.7251 38.76C15.7251 38.092 15.5911 37.502 15.3231 36.99C15.0551 36.474 14.6791 36.07 14.1951 35.778C13.7111 35.486 13.1431 35.34 12.4911 35.34C11.8551 35.34 11.2951 35.484 10.8111 35.772C10.3271 36.06 9.94906 36.46 9.67706 36.972C9.40506 37.484 9.26906 38.08 9.26906 38.76C9.26906 39.428 9.40106 40.02 9.66506 40.536C9.93306 41.048 10.3091 41.45 10.7931 41.742C11.2771 42.034 11.8431 42.18 12.4911 42.18ZM12.4911 40.824C11.9351 40.824 11.5131 40.638 11.2251 40.266C10.9411 39.89 10.7991 39.388 10.7991 38.76C10.7991 38.148 10.9351 37.652 11.2071 37.272C11.4831 36.888 11.9111 36.696 12.4911 36.696C13.0591 36.696 13.4851 36.884 13.7691 37.26C14.0531 37.632 14.1951 38.132 14.1951 38.76C14.1951 39.368 14.0531 39.864 13.7691 40.248C13.4891 40.632 13.0631 40.824 12.4911 40.824ZM17.167 42H18.613V33.18H17.167V42ZM20.9743 42H22.4203V36.654H23.9863V35.52H22.4203V35.106C22.4203 34.882 22.4863 34.702 22.6183 34.566C22.7543 34.426 22.9603 34.356 23.2363 34.356H23.9863V33.18H23.1763C23.0203 33.18 22.8383 33.186 22.6303 33.198C22.4223 33.206 22.2103 33.25 21.9943 33.33C21.7823 33.406 21.5843 33.546 21.4003 33.75C21.1803 33.99 21.0543 34.266 21.0223 34.578C20.9903 34.89 20.9743 35.17 20.9743 35.418V35.52H19.9303V36.654H20.9743V42ZM25.2463 34.536H26.6923V33.21H25.2463V34.536ZM25.2463 42H26.6923V35.52H25.2463V42ZM28.4843 42H29.9483V38.67C29.9483 38.146 30.0223 37.742 30.1703 37.458C30.3223 37.17 30.5143 36.972 30.7463 36.864C30.9823 36.752 31.2223 36.696 31.4663 36.696C31.8103 36.696 32.0843 36.772 32.2883 36.924C32.4923 37.072 32.6423 37.262 32.7383 37.494C32.8383 37.722 32.9023 37.96 32.9303 38.208C32.9623 38.456 32.9783 38.68 32.9783 38.88V42H34.4423V38.382C34.4423 38.23 34.4283 38.028 34.4003 37.776C34.3763 37.524 34.3203 37.258 34.2323 36.978C34.1443 36.698 34.0082 36.434 33.8242 36.186C33.6403 35.934 33.3903 35.73 33.0743 35.574C32.7623 35.414 32.3683 35.334 31.8923 35.334C31.4243 35.334 31.0123 35.416 30.6562 35.58C30.3043 35.74 30.0103 35.96 29.7743 36.24V35.52H28.4843V42ZM38.606 42.18C38.942 42.18 39.248 42.134 39.524 42.042C39.804 41.954 40.054 41.83 40.274 41.67V42.288C40.282 42.748 40.14 43.096 39.848 43.332C39.56 43.568 39.19 43.686 38.738 43.686C38.482 43.686 38.24 43.628 38.012 43.512C37.784 43.396 37.61 43.222 37.49 42.99L36.158 43.65C36.41 44.09 36.766 44.434 37.226 44.682C37.69 44.934 38.192 45.06 38.732 45.06C39.464 45.06 40.092 44.91 40.616 44.61C41.144 44.314 41.482 43.852 41.63 43.224C41.662 43.08 41.684 42.934 41.696 42.786C41.712 42.638 41.72 42.48 41.72 42.312V35.52H40.454V35.988C40.226 35.78 39.962 35.62 39.662 35.508C39.362 35.396 39.028 35.34 38.66 35.34C38.048 35.34 37.516 35.488 37.064 35.784C36.616 36.08 36.268 36.486 36.02 37.002C35.772 37.518 35.648 38.104 35.648 38.76C35.648 39.408 35.77 39.99 36.014 40.506C36.258 41.022 36.602 41.43 37.046 41.73C37.49 42.03 38.01 42.18 38.606 42.18ZM38.828 40.884C38.452 40.884 38.142 40.79 37.898 40.602C37.654 40.41 37.472 40.154 37.352 39.834C37.236 39.514 37.178 39.156 37.178 38.76C37.178 38.368 37.238 38.012 37.358 37.692C37.482 37.368 37.668 37.112 37.916 36.924C38.168 36.732 38.488 36.636 38.876 36.636C39.428 36.636 39.828 36.832 40.076 37.224C40.328 37.616 40.454 38.128 40.454 38.76C40.454 39.388 40.328 39.9 40.076 40.296C39.828 40.688 39.412 40.884 38.828 40.884Z" fill="#717171"/>
</svg>
