<svg width="67" height="45" viewBox="0 0 67 45" fill="none" xmlns="http://www.w3.org/2000/svg">
<path fill-rule="evenodd" clip-rule="evenodd" d="M45.0798 3.42383C45.4519 3.24176 45.6059 2.79256 45.4238 2.4205C45.2418 2.04845 44.7926 1.89444 44.4205 2.07651L24.5002 11.8248V6.75017H23.0002V12.5588L20.9205 13.5765C20.5485 13.7586 20.3944 14.2078 20.5765 14.5798C20.7586 14.9519 21.2078 15.1059 21.5798 14.9238L23.0002 14.2288V23.7502C23.0002 24.7167 23.7837 25.5002 24.7502 25.5002H41.2502C42.2167 25.5002 43.0002 24.7167 43.0002 23.7502V4.44154L45.0798 3.42383ZM41.5002 5.17558L24.5002 13.4947V23.7502C24.5002 23.8882 24.6121 24.0002 24.7502 24.0002H29.0002V16.2502C29.0002 15.2837 29.7837 14.5002 30.7502 14.5002H35.2502C36.2167 14.5002 37.0002 15.2837 37.0002 16.2502V24.0002H41.2502C41.3882 24.0002 41.5002 23.8882 41.5002 23.7502V5.17558ZM35.5002 24.0002H30.5002V16.2502C30.5002 16.1121 30.6121 16.0002 30.7502 16.0002H35.2502C35.3882 16.0002 35.5002 16.1121 35.5002 16.2502V24.0002ZM39.2502 11.2502C39.8025 11.2502 40.2502 10.8025 40.2502 10.2502C40.2502 9.69788 39.8025 9.25017 39.2502 9.25017C38.6979 9.25017 38.2502 9.69788 38.2502 10.2502C38.2502 10.8025 38.6979 11.2502 39.2502 11.2502Z" fill="#717171"/>
<path d="M2.916 42H4.362V34.716H7.158V33.36H0.12V34.716H2.916V42ZM8.23734 34.536H9.68334V33.21H8.23734V34.536ZM8.23734 42H9.68334V35.52H8.23734V42ZM11.4686 42H12.9326V38.67C12.9326 38.146 13.0066 37.742 13.1546 37.458C13.3066 37.17 13.4986 36.972 13.7306 36.864C13.9666 36.752 14.2066 36.696 14.4506 36.696C14.7946 36.696 15.0686 36.772 15.2726 36.924C15.4766 37.072 15.6266 37.262 15.7226 37.494C15.8226 37.722 15.8866 37.96 15.9146 38.208C15.9466 38.456 15.9626 38.68 15.9626 38.88V42H17.4266V38.382C17.4266 38.23 17.4126 38.028 17.3846 37.776C17.3606 37.524 17.3046 37.258 17.2166 36.978C17.1286 36.698 16.9926 36.434 16.8086 36.186C16.6246 35.934 16.3746 35.73 16.0586 35.574C15.7466 35.414 15.3526 35.334 14.8766 35.334C14.4086 35.334 13.9966 35.416 13.6406 35.58C13.2886 35.74 12.9946 35.96 12.7586 36.24V35.52H11.4686V42ZM19.61 44.88H20.966L24.578 35.52H23.132L21.374 40.158L19.562 35.52H18.056L20.678 41.952L19.61 44.88ZM27.8632 42H29.3272V38.67C29.3272 38.146 29.4012 37.742 29.5492 37.458C29.7012 37.17 29.8932 36.972 30.1252 36.864C30.3612 36.752 30.6012 36.696 30.8452 36.696C31.1892 36.696 31.4632 36.772 31.6672 36.924C31.8712 37.072 32.0212 37.262 32.1172 37.494C32.2172 37.722 32.2812 37.96 32.3092 38.208C32.3412 38.456 32.3572 38.68 32.3572 38.88V42H33.8212V38.382C33.8212 38.23 33.8072 38.028 33.7792 37.776C33.7552 37.524 33.6992 37.258 33.6112 36.978C33.5232 36.698 33.3872 36.434 33.2032 36.186C33.0192 35.934 32.7692 35.73 32.4532 35.574C32.1412 35.414 31.7472 35.334 31.2712 35.334C30.8032 35.334 30.3912 35.416 30.0352 35.58C29.6832 35.74 29.3892 35.96 29.1532 36.24V33.36H27.8632V42ZM38.2489 42.18C38.8969 42.18 39.4629 42.036 39.9469 41.748C40.4309 41.456 40.8069 41.054 41.0749 40.542C41.3469 40.026 41.4829 39.432 41.4829 38.76C41.4829 38.092 41.3489 37.502 41.0809 36.99C40.8129 36.474 40.4369 36.07 39.9529 35.778C39.4689 35.486 38.9009 35.34 38.2489 35.34C37.6129 35.34 37.0529 35.484 36.5689 35.772C36.0849 36.06 35.7069 36.46 35.4349 36.972C35.1629 37.484 35.0269 38.08 35.0269 38.76C35.0269 39.428 35.1589 40.02 35.4229 40.536C35.6909 41.048 36.0669 41.45 36.5509 41.742C37.0349 42.034 37.6009 42.18 38.2489 42.18ZM38.2489 40.824C37.6929 40.824 37.2709 40.638 36.9829 40.266C36.6989 39.89 36.5569 39.388 36.5569 38.76C36.5569 38.148 36.6929 37.652 36.9649 37.272C37.2409 36.888 37.6689 36.696 38.2489 36.696C38.8169 36.696 39.2429 36.884 39.5269 37.26C39.8109 37.632 39.9529 38.132 39.9529 38.76C39.9529 39.368 39.8109 39.864 39.5269 40.248C39.2469 40.632 38.8209 40.824 38.2489 40.824ZM42.7928 42H44.2508V38.01C44.2508 37.606 44.3608 37.278 44.5808 37.026C44.8048 36.774 45.1008 36.648 45.4688 36.648C45.8488 36.648 46.1488 36.774 46.3688 37.026C46.5888 37.278 46.6988 37.63 46.6988 38.082V42H48.1388V38.01C48.1388 37.582 48.2548 37.248 48.4868 37.008C48.7228 36.768 49.0148 36.648 49.3628 36.648C49.7348 36.648 50.0308 36.774 50.2508 37.026C50.4748 37.274 50.5868 37.62 50.5868 38.064V42H52.0328V37.698C52.0328 36.994 51.8408 36.428 51.4568 36C51.0768 35.572 50.5288 35.358 49.8128 35.358C49.3928 35.358 49.0088 35.45 48.6608 35.634C48.3128 35.818 48.0388 36.07 47.8388 36.39C47.6668 36.074 47.4228 35.824 47.1068 35.64C46.7908 35.452 46.4048 35.358 45.9488 35.358C45.5608 35.358 45.2028 35.436 44.8748 35.592C44.5508 35.744 44.2828 35.954 44.0708 36.222V35.52H42.7928V42ZM56.4383 42.18C57.0623 42.18 57.6323 42.02 58.1483 41.7C58.6683 41.376 59.0523 40.92 59.3003 40.332L57.8723 39.9C57.5843 40.516 57.0783 40.824 56.3543 40.824C55.8623 40.824 55.4743 40.682 55.1903 40.398C54.9063 40.11 54.7363 39.698 54.6803 39.162H59.3723C59.4283 38.382 59.3423 37.706 59.1143 37.134C58.8863 36.562 58.5363 36.12 58.0643 35.808C57.5963 35.496 57.0263 35.34 56.3543 35.34C55.7183 35.34 55.1583 35.484 54.6743 35.772C54.1903 36.056 53.8123 36.46 53.5403 36.984C53.2683 37.508 53.1323 38.124 53.1323 38.832C53.1323 39.488 53.2703 40.068 53.5463 40.572C53.8263 41.076 54.2143 41.47 54.7103 41.754C55.2063 42.038 55.7823 42.18 56.4383 42.18ZM56.4143 36.606C56.8623 36.606 57.2063 36.724 57.4463 36.96C57.6903 37.192 57.8443 37.562 57.9083 38.07H54.7163C54.8883 37.094 55.4543 36.606 56.4143 36.606ZM63.2131 42.18C64.0491 42.18 64.7031 41.994 65.1751 41.622C65.6511 41.25 65.8891 40.738 65.8891 40.086C65.8891 39.582 65.7291 39.186 65.4091 38.898C65.0931 38.61 64.5471 38.366 63.7711 38.166C63.2671 38.038 62.8871 37.93 62.6311 37.842C62.3791 37.754 62.2111 37.666 62.1271 37.578C62.0431 37.49 62.0011 37.384 62.0011 37.26C62.0011 37.044 62.1051 36.876 62.3131 36.756C62.5211 36.632 62.7951 36.578 63.1351 36.594C63.4871 36.614 63.7691 36.704 63.9811 36.864C64.1971 37.024 64.3251 37.242 64.3651 37.518L65.8411 37.254C65.7611 36.67 65.4751 36.206 64.9831 35.862C64.4911 35.514 63.8671 35.34 63.1111 35.34C62.3391 35.34 61.7211 35.52 61.2571 35.88C60.7931 36.24 60.5611 36.724 60.5611 37.332C60.5611 37.816 60.7231 38.198 61.0471 38.478C61.3751 38.758 61.9451 39.004 62.7571 39.216C63.2451 39.344 63.6051 39.452 63.8371 39.54C64.0731 39.624 64.2271 39.71 64.2991 39.798C64.3711 39.886 64.4071 40.004 64.4071 40.152C64.4071 40.392 64.3111 40.582 64.1191 40.722C63.9271 40.858 63.6591 40.926 63.3151 40.926C62.9191 40.926 62.5891 40.834 62.3251 40.65C62.0651 40.466 61.8991 40.214 61.8271 39.894L60.3511 40.122C60.4591 40.774 60.7631 41.28 61.2631 41.64C61.7631 42 62.4131 42.18 63.2131 42.18Z" fill="#717171"/>
</svg>
