<!DOCTYPE svg PUBLIC "-//W3C//DTD SVG 1.1//EN" "http://www.w3.org/Graphics/SVG/1.1/DTD/svg11.dtd">
<svg xmlns="http://www.w3.org/2000/svg" viewBox="0 0 241 220">
<path d="M104.5 49.455C94.532 54.31 94.013 55.183 74.418 100c-15.632 35.751-16.861 39-17.211 45.5-1.056 19.573 19.347 32.166 38.214 23.588 2.243-1.02 7.175-4.495 10.959-7.722 3.785-3.226 7.448-6.283 8.142-6.792.885-.651 3.158.773 7.62 4.772 18.957 16.991 39.591 16.422 49.268-1.358 5.78-10.619 5.517-11.649-14.851-58.254-19.208-43.952-20.464-46.089-29.709-50.565-6.372-3.084-15.675-2.965-22.35.286m1.74 7.655c-2.343 1.16-5.097 3.297-6.12 4.749-3.193 4.531-35.277 78.891-35.835 83.054-1.341 9.998 7.314 18.611 18.642 18.553 8.788-.045 10.701-1.098 26.441-14.56.478-.409-1.862-4.502-5.201-9.096-8.751-12.046-11.501-18.516-10.973-25.821 1.732-23.938 34.274-29.19 43.559-7.029 3.815 9.106.378 19.688-11.434 35.212l-4.315 5.671 6.248 5.592c14.245 12.749 28.057 13.893 36.356 3.012 5.943-7.791 5.266-10.378-14.323-54.784-9.423-21.361-17.955-39.746-18.959-40.857-5.321-5.884-16.271-7.564-24.086-3.696m1.074 45.84c-5.28 3.22-7.924 10.07-6.265 16.232C102.337 123.964 113.65 141 115.538 141c1.687 0 10.89-12.698 13.696-18.897 6.22-13.743-8.993-27.035-21.92-19.153" fill-rule="evenodd"/>
</svg>