<svg version="1.1" id="Layer_1" xmlns="http://www.w3.org/2000/svg" xmlns:xlink="http://www.w3.org/1999/xlink" x="0px" y="0px"
     width="100%" viewBox="0 0 212 184" enable-background="new 0 0 212 184" xml:space="preserve">
    <path fill="none" opacity="1.000000" stroke="none" 
          d="M145.000000,185.000000 C96.666672,185.000000 48.833340,185.000000 1.000006,185.000000 C1.000004,123.666672 1.000004,62.333347 1.000002,1.000015 C71.666656,1.000010 142.333313,1.000010 212.999969,1.000005 C212.999985,62.333317 212.999985,123.666634 213.000000,184.999969 C190.500000,185.000000 168.000000,185.000000 145.000000,185.000000" />
    <path fill="#1C1C1C" opacity="1.000000" stroke="none" 
          d="M60.081337,151.306290 C51.669800,146.709961 48.922615,139.325668 47.911121,130.636108 C46.557049,119.003487 53.252594,109.959641 57.300488,100.139885 C64.632843,82.352364 72.538177,64.799942 80.285461,47.185055 C84.013283,38.709148 89.037216,31.864187 98.863121,29.212503 C109.990372,26.209627 124.036209,30.127140 129.981659,40.157715 C135.120087,48.826763 139.207993,58.156879 143.304092,67.396996 C150.750916,84.195847 157.726379,101.203522 165.159241,118.008743 C169.508835,127.842926 165.822525,143.543457 155.296097,150.236389 C143.402847,157.798370 126.324738,153.235046 118.209892,146.869202 C114.337578,143.831497 110.539948,140.698593 106.289185,137.270691 C93.940826,151.378952 79.515610,159.415146 60.081337,151.306290" />
    <path fill="#C5C5C5" opacity="1.000000" stroke="none" 
          d="M124.732849,82.300056 C114.863976,72.552231 102.572319,71.455498 92.497360,79.168007 C83.033218,86.412933 80.866386,99.253021 87.609543,110.596481 C91.511307,117.160088 96.035355,123.353783 100.620522,130.225266 C93.007469,136.337418 86.649078,144.946747 75.052612,145.342957 C61.272408,145.813797 52.393604,133.853043 57.776482,121.197906 C68.199738,96.692841 78.915504,72.310272 89.731873,47.975536 C92.912514,40.819702 98.946617,37.102997 106.800735,36.995934 C114.689537,36.888397 120.861336,40.525951 124.048439,47.648224 C135.059875,72.255646 145.795563,96.987694 156.465210,121.746002 C159.384674,128.520447 157.947372,135.042206 152.915833,140.252548 C147.371414,145.994034 139.858597,147.234604 133.067627,144.113129 C125.841309,140.791565 119.544464,135.447830 112.972359,131.073944 C118.116501,123.182854 122.797943,116.569496 126.877563,109.603668 C132.319870,100.311111 131.543259,91.165367 124.732849,82.300056" />
    <path fill="#000000" opacity="1.000000" stroke="none" 
          d="M96.476616,107.502495 C92.451523,101.067406 91.310577,95.097061 96.214447,88.802834 C100.306831,83.550171 107.586777,81.674500 113.487213,84.895180 C120.495689,88.720673 123.942947,96.635368 120.632156,102.877029 C117.694794,108.414688 113.969261,113.545876 110.441666,118.754906 C107.951080,122.432632 105.548668,121.982529 103.324165,118.301018 C101.184799,114.760376 98.873856,111.323410 96.476616,107.502495" />
</svg>
