<!DOCTYPE svg PUBLIC "-//W3C//DTD SVG 1.1//EN" "http://www.w3.org/Graphics/SVG/1.1/DTD/svg11.dtd">
<svg xmlns="http://www.w3.org/2000/svg" viewBox="0 0 219 198">
<path fill="#fa426c" d="M103.5 34.017c-8.246 1.418-15.879 6.885-19.487 13.957-9.072 17.782-34.36 78.189-34.762 83.037-1.315 15.858 9.589 27.496 25.749 27.482 9.43-.008 15.501-2.688 25.75-11.367l7.25-6.14 7.25 6.105c10.942 9.212 15.57 11.291 25.25 11.344 14.97.082 25.204-9.064 26.293-23.498.439-5.808-1.027-10.53-8.052-25.937-1.631-3.575-3.313-7.4-3.739-8.5-.818-2.11-15.416-35.578-17.012-39-.513-1.1-2.447-5.375-4.299-9.5-6.002-13.374-17.425-20.178-30.191-17.983m-4.97 10.265c-5.758 3.26-6.575 4.796-24.871 46.682-17.481 40.024-18.212 42.383-15.295 49.365 3.893 9.318 16.857 13.103 27.136 7.923 4.181-2.108 16.023-12.343 15.892-13.737-.06-.631-2.176-3.817-4.704-7.081-11.542-14.903-14.178-25.045-9.139-35.156 11.297-22.67 46.083-12.147 43.1 13.038-.637 5.376-7.14 17.362-13.399 24.694-1.787 2.095-3.25 4.248-3.25 4.786 0 1.243 12.524 11.458 16.5 13.458 13.489 6.786 28.5-1.23 28.5-15.218 0-4.118-31.698-78.45-35.836-84.036-5.111-6.899-16.823-9.143-24.634-4.718m1.711 45.713c-7.623 4.648-9.092 12.278-4.167 21.653C99.615 118.389 106.625 128 108.001 128c3.142 0 15.001-20.443 14.995-25.852-.008-7.667-6.873-14.141-14.996-14.141-2.73 0-5.782.782-7.759 1.988" fill-rule="evenodd"/>
</svg>